<svg width="16" height="19" viewBox="0 0 16 19" fill="none" xmlns="http://www.w3.org/2000/svg">
<circle cx="8" cy="11" r="8" fill="#FF720C"/>
<path d="M8.472 7.5C8.464 7.7 8.388 7.864 8.244 7.992C8.108 8.112 7.944 8.172 7.752 8.172C7.56 8.172 7.396 8.104 7.26 7.968C7.124 7.832 7.056 7.668 7.056 7.476C7.056 7.268 7.14 7.104 7.308 6.984C7.476 6.864 7.648 6.804 7.824 6.804C8.032 6.804 8.192 6.876 8.304 7.02C8.416 7.156 8.472 7.316 8.472 7.5ZM8.304 10.296L8.208 12.816C8.208 13.256 8.244 13.6 8.316 13.848C8.388 14.096 8.528 14.22 8.736 14.22C8.968 14.22 9.168 14.168 9.336 14.064C9.512 13.952 9.68 13.824 9.84 13.68L9.996 13.8V13.932C9.86 14.108 9.7 14.288 9.516 14.472C9.34 14.648 9.148 14.796 8.94 14.916C8.74 15.036 8.528 15.096 8.304 15.096C8.136 15.096 7.976 15.064 7.824 15C7.68 14.944 7.564 14.82 7.476 14.628C7.388 14.436 7.344 14.144 7.344 13.752L7.416 11.1C7.416 10.788 7.384 10.54 7.32 10.356C7.264 10.172 7.156 10.08 6.996 10.08C6.868 10.08 6.712 10.124 6.528 10.212C6.344 10.292 6.18 10.376 6.036 10.464L5.88 10.248C6.152 10.032 6.44 9.828 6.744 9.636C7.056 9.444 7.328 9.348 7.56 9.348C7.832 9.348 8.024 9.44 8.136 9.624C8.248 9.808 8.304 10.032 8.304 10.296Z" fill="white"/>
</svg>
